# ProBuilder 4.4.0
# https://unity3d.com/unity/features/worldbuilding/probuilder
# 24.02.2021 16:16:32

mtllib ./Wall.mtl
o Wall

g Cube
v 5.9 0 0
v -9.900001 0 0
v 5.900001 6.1 0
v -9.900001 6.1 0
v -9.900001 0 -0.2000008
v -9.900001 6.1 -0.2000008
v 5.9 0 -0.2000008
v 5.900001 6.1 -0.2000008

vt 5.9 0
vt -9.900001 0
vt 5.900001 6.1
vt -9.900001 6.1
vt 0 0
vt -0.2000008 0
vt 0 6.1
vt -0.2000008 6.1
vt 9.900001 0
vt -5.9 0
vt 9.900001 6.1
vt -5.900001 6.1
vt 0.2000008 4.612031E-07
vt 0.2000008 6.1
vt 0 6.1
vt -5.900001 -0.2000008
vt 9.900001 -0.2000008
vt 5.9 -0.2000008
vt -9.900001 -0.2000008

vn 0 0 1
vn -1 0 0
vn 0 0 -1
vn 1 -7.817003E-08 0
vn 0 1 0
vn 0 -1 0

usemtl DefaultHDMaterial
f 3/3/1 4/4/1 2/2/1 1/1/1
f 4/7/2 6/8/2 5/6/2 2/5/2
f 6/11/3 8/12/3 7/10/3 5/9/3
f 8/14/4 3/15/4 1/5/4 7/13/4
f 8/16/5 6/17/5 4/9/5 3/10/5
f 1/1/6 2/2/6 5/19/6 7/18/6

